# xmcd
#
# Track frame offsets:
#	150
#	25692
#	53045
#	69248
#	80198
#	112457
#	131857
#	146935
#	165863
#	183165
#	251373
#	299477
#	330429
#
# Disc length: 4710 seconds
#
# Revision: 0
# Processed by: cddbd v1.5.2PL0 Copyright (c) Steve Scherf et al.
# Submitted via: audiograbber 1.82.02
#
DISCID=be12640d
DTITLE=Eric Clapton - Further On Up The Crossroads - Disc 2
DYEAR=1995
DGENRE=Blues
TTITLE0=Bell Bottom Blues
TTITLE1=Key To The Highway
TTITLE2=Dobro Jam #1 (Give Me Strength #1)
TTITLE3=Dobro Jam #2 (Give Me Strength #2)
TTITLE4=Blues Jam In F Minor
TTITLE5=Blues Jam In D Minor
TTITLE6=Gypsy (Please Be With Me)
TTITLE7=Motherless Children (Jam)
TTITLE8=Something You Got (Jam)
TTITLE9=Jam In E
TTITLE10=Meet Me (In The Bootom) (Instrumental Jam)
TTITLE11=Meet Me (In The Bottom) (Vocal)
TTITLE12=Fool Like You
EXTD=
EXTT0=
EXTT1=
EXTT2=
EXTT3=
EXTT4=
EXTT5=
EXTT6=
EXTT7=
EXTT8=
EXTT9=
EXTT10=
EXTT11=
EXTT12=
PLAYORDER=
